<svg id="visual" viewBox="0 0 900 600" width="900" height="600" xmlns="http://www.w3.org/2000/svg" xmlns:xlink="http://www.w3.org/1999/xlink" version="1.1"><g transform="translate(498.7766151445578 284.17497960904257)"><path d="M89.5 -158.3C115.6 -122.5 136 -97 126.4 -71.4C116.7 -45.9 76.9 -20.3 74.9 12.5C72.9 45.3 108.6 85.2 115.1 127.6C121.7 170.1 99 215 61.7 239.5C24.3 263.9 -27.7 267.7 -45.2 228.5C-62.7 189.3 -45.7 107.1 -62.8 66.2C-79.9 25.3 -131 25.8 -171.7 0.8C-212.4 -24.1 -242.6 -74.4 -216.8 -85.7C-190.9 -97.1 -109 -69.6 -63.5 -96.5C-18 -123.4 -9 -204.7 11.4 -222.4C31.7 -240 63.4 -194 89.5 -158.3" fill="#FCC8D1"></path></g></svg>