<svg id="visual" viewBox="0 0 900 600" width="900" height="600" xmlns="http://www.w3.org/2000/svg" xmlns:xlink="http://www.w3.org/1999/xlink" version="1.1"><rect x="0" y="0" width="900" height="600" fill="#FFABAB"></rect><defs><linearGradient id="grad1_0" x1="33.3%" y1="0%" x2="100%" y2="100%"><stop offset="20%" stop-color="#ffabab" stop-opacity="1"></stop><stop offset="80%" stop-color="#ffabab" stop-opacity="1"></stop></linearGradient></defs><defs><linearGradient id="grad2_0" x1="0%" y1="0%" x2="66.7%" y2="100%"><stop offset="20%" stop-color="#ffabab" stop-opacity="1"></stop><stop offset="80%" stop-color="#ffabab" stop-opacity="1"></stop></linearGradient></defs><g transform="translate(900, 0)"><path d="M0 243.4C-26.1 216.1 -52.2 188.9 -69.6 168.1C-87.1 147.4 -95.8 133.1 -124.5 124.5C-153.1 115.8 -201.7 112.9 -224.8 93.1C-248 73.3 -245.7 36.7 -243.4 0L0 0Z" fill="#FEF2F4"></path></g><g transform="translate(0, 600)"><path d="M0 -243.4C20.3 -205.1 40.6 -166.9 62.8 -151.5C84.9 -136.2 108.9 -143.8 139.3 -139.3C169.7 -134.8 206.4 -118.4 224.8 -93.1C243.3 -67.9 243.3 -34 243.4 0L0 0Z" fill="#FEF2F4"></path></g></svg>