<svg id="visual" viewBox="0 0 900 600" width="900" height="600" xmlns="http://www.w3.org/2000/svg" xmlns:xlink="http://www.w3.org/1999/xlink" version="1.1"><g transform="translate(461.75717537806173 299.7027624765205)"><path d="M61.6 -109C95.1 -74.3 148.1 -83.1 147.2 -71.3C146.4 -59.4 91.8 -27 80.7 7.7C69.6 42.4 102.1 79.5 105.1 109.9C108.1 140.4 81.7 164.2 45.9 190.2C10.1 216.2 -34.9 244.4 -67.1 232.9C-99.2 221.4 -118.4 170.3 -123.8 127.6C-129.3 84.9 -121.1 50.5 -132.4 15C-143.8 -20.5 -174.7 -57.2 -170.3 -82.3C-165.9 -107.5 -126.2 -121 -91.9 -155.4C-57.7 -189.7 -28.8 -244.9 -7.4 -233.4C14.1 -221.9 28.1 -143.7 61.6 -109" fill="#BB004B"></path></g></svg>